# xmcd CD database file
#
# Track frame offsets:
#	150
#	20263
#	42517
#	63615
#	78805
#	101973
#	119380
#	127925
#	144235
#	179220
#	195974
#
# Disc length: 2914 seconds
#
# Revision: 0
# Processed by: cddbd v1.5.2PL0 Copyright (c) Steve Scherf et al.
# Submitted via: CDex 1.70beta2
#
DISCID=950b600b
DTITLE=Myron Walden In This World - To Feel
DYEAR=2010
DGENRE=Jazz
TTITLE0=When All Is Said And Done
TTITLE1=Giving
TTITLE2=Settling Calmness
TTITLE3=In This World
TTITLE4=Lonesome Dwellings
TTITLE5=The Fall Of Summer
TTITLE6=Inner Peace
TTITLE7=As She Sleeps
TTITLE8=Hope
TTITLE9=I Believe
TTITLE10=Gone But Not Forgotten
EXTD=YEAR: 2010
EXTT0=
EXTT1=
EXTT2=
EXTT3=
EXTT4=
EXTT5=
EXTT6=
EXTT7=
EXTT8=
EXTT9=
EXTT10=
PLAYORDER=
